<?xml version="1.0" ?>

<!-- Uploaded to: SVG Repo, www.svgrepo.com, Generator: SVG Repo Mixer Tools -->
<svg width="800px" height="800px" viewBox="0 0 32 32" id="svg5" version="1.1" xmlns="http://www.w3.org/2000/svg" xmlns:svg="http://www.w3.org/2000/svg">

<defs id="defs2"/>

<g id="layer1" transform="translate(-108,-484)">

<path d="m 132,505.01367 a 1,1 0 0 0 -1,1 v 2 a 1.0001,1.0001 0 0 0 1,1 h 2 a 1,1 0 0 0 1,-1 1,1 0 0 0 -1,-1 h -1 v -1 a 1,1 0 0 0 -1,-1 z" id="path453747" style="color:#000000;fill:#000000;fill-rule:evenodd;stroke-linecap:round;stroke-linejoin:round;stroke-miterlimit:4.1;-inkscape-stroke:none"/>

<path d="m 115,504.01367 a 1,1 0 0 0 -1,1 1,1 0 0 0 1,1 h 3 a 1,1 0 0 0 1,-1 1,1 0 0 0 -1,-1 z" id="path453737" style="color:#000000;fill:#000000;fill-rule:evenodd;stroke-linecap:round;stroke-linejoin:round;stroke-miterlimit:4.1;-inkscape-stroke:none"/>

<path d="m 114,486.01367 a 1.0001,1.0001 0 0 0 -0.85742,0.48438 l -3,5 a 1.0001,1.0001 0 0 0 -0.0234,0.0684 1.0001,1.0001 0 0 0 -0.0703,0.20507 1.0001,1.0001 0 0 0 -0.0371,0.1836 1.0001,1.0001 0 0 0 -0.0117,0.0586 v 17 a 1.0001,1.0001 0 0 0 1,1 h 15.3457 c 0.8278,2.32506 3.05309,4 5.6543,4 3.30186,0 6,-2.69814 6,-6 0,-2.9609 -2.17093,-5.4344 -5,-5.91406 v -10.08594 a 1.0001,1.0001 0 0 0 -0.006,-0.0254 1.0001,1.0001 0 0 0 -0.0664,-0.3418 1.0001,1.0001 0 0 0 -0.0176,-0.0351 1.0001,1.0001 0 0 0 -0.0527,-0.11328 l -3,-5 A 1.0001,1.0001 0 0 0 129,486.01367 Z m 0.56641,2 h 4.21875 l -0.58399,3 h -5.43555 z m 6.25781,0 h 2.35742 l 0.60352,3 h -3.54493 z m 4.39844,0 h 3.21093 l 1.80079,3 h -4.40821 z m -13.22266,5 h 6 v 8 a 1.0001,1.0001 0 0 0 1.70703,0.70703 L 122,499.42773 l 2.29297,2.29297 A 1.0001,1.0001 0 0 0 126,501.01367 v -8 h 5 v 9.08594 c -2.82907,0.47966 -5,2.95316 -5,5.91406 h -14 z m 8,0 h 4 v 5.58594 l -1.29297,-1.29297 a 1.0001,1.0001 0 0 0 -1.41406,0 L 120,498.59961 Z m 12,11 c 2.22098,0 4,1.77902 4,4 0,2.22098 -1.77902,4 -4,4 -1.90036,0 -3.47694,-1.30297 -3.89258,-3.07031 a 1,1 0 0 0 -0.0527,-0.25977 C 128.01839,508.46564 128,508.24246 128,508.01367 c 0,-2.22098 1.77902,-4 4,-4 z" id="path453693" style="color:#000000;fill:#000000;fill-rule:evenodd;stroke-linecap:round;stroke-linejoin:round;stroke-miterlimit:4.1;-inkscape-stroke:none"/>

</g>

</svg>